HIERARCHY
ROOT Hips
{
	OFFSET 46.560200 -33.670715 84.370094
	CHANNELS 6 Xposition Yposition Zposition Xrotation Yrotation Zrotation
	JOINT spine
	{
		OFFSET 0.000000 -0.359108 6.244789
		CHANNELS 3 Xrotation Yrotation Zrotation
		JOINT spine1
		{
			OFFSET 0.000000 0.000000 9.069412
			CHANNELS 3 Xrotation Yrotation Zrotation
			JOINT spine2
			{
				OFFSET 0.000000 -0.000004 8.690140
				CHANNELS 3 Xrotation Yrotation Zrotation
				JOINT Neck
				{
					OFFSET 0.000000 -1.063725 22.311203
					CHANNELS 3 Xrotation Yrotation Zrotation
					JOINT Head
					{
						OFFSET 0.000000 0.000000 6.740814
						CHANNELS 3 Xrotation Yrotation Zrotation
						End Site
						{
							OFFSET 0.000000 5.380968 16.316498
						}
					}
				}
				JOINT RightShoulder
				{
					OFFSET -3.659161 0.509514 9.384682
					CHANNELS 3 Xrotation Yrotation Zrotation
					JOINT RightArm
					{
						OFFSET 0.000000 -0.000004 12.308907
						CHANNELS 3 Xrotation Yrotation Zrotation
						JOINT RightArmRoll
						{
							OFFSET 0.000000 0.000000 6.213745
							CHANNELS 3 Xrotation Yrotation Zrotation
							JOINT RightForeArm
							{
								OFFSET 0.000000 -0.000004 18.098495
								CHANNELS 3 Xrotation Yrotation Zrotation
								JOINT RightForeArmRoll
								{
									OFFSET 0.000000 0.000000 6.972794
									CHANNELS 3 Xrotation Yrotation Zrotation
									JOINT RightHand
									{
										OFFSET 0.000000 0.000000 13.992905
										CHANNELS 3 Xrotation Yrotation Zrotation
										End Site
										{
											OFFSET 0.000000 0.000000 0.100006
										}
									}
								}
							}
						}
					}
				}
				JOINT LeftShoulder
				{
					OFFSET 3.659161 0.509514 9.384682
					CHANNELS 3 Xrotation Yrotation Zrotation
					JOINT LeftArm
					{
						OFFSET 0.000000 -0.000004 12.308907
						CHANNELS 3 Xrotation Yrotation Zrotation
						JOINT LeftArmRoll
						{
							OFFSET 0.000000 0.000000 6.213745
							CHANNELS 3 Xrotation Yrotation Zrotation
							JOINT LeftForeArm
							{
								OFFSET 0.000000 -0.000004 18.098495
								CHANNELS 3 Xrotation Yrotation Zrotation
								JOINT LeftForeArmRoll
								{
									OFFSET 0.000000 0.000000 6.972794
									CHANNELS 3 Xrotation Yrotation Zrotation
									JOINT LeftHand
									{
										OFFSET 0.000000 0.000000 13.992905
										CHANNELS 3 Xrotation Yrotation Zrotation
										End Site
										{
											OFFSET 0.000000 0.000000 0.100006
										}
									}
								}
							}
						}
					}
				}
			}
		}
	}
	JOINT RightUpLeg
	{
		OFFSET -5.535149 0.851456 -1.014999
		CHANNELS 3 Xrotation Yrotation Zrotation
		JOINT RightUpLegRoll
		{
			OFFSET 0.000000 0.000000 16.407501
			CHANNELS 3 Xrotation Yrotation Zrotation
			JOINT RightLeg
			{
				OFFSET 0.000000 0.000004 -20.318100
				CHANNELS 3 Xrotation Yrotation Zrotation
				JOINT RightLegRoll
				{
					OFFSET 0.000000 -0.000004 20.384598
					CHANNELS 3 Xrotation Yrotation Zrotation
					JOINT RightFoot
					{
						OFFSET 0.000000 -0.000004 16.966797
						CHANNELS 3 Xrotation Yrotation Zrotation
						JOINT RightToeBase
						{
							OFFSET 0.000000 -0.000004 14.183403
							CHANNELS 3 Xrotation Yrotation Zrotation
							End Site
							{
								OFFSET 0.006012 0.791744 6.868896
							}
						}
					}
				}
			}
		}
	}
	JOINT LeftUpLeg
	{
		OFFSET 5.535149 0.851456 -1.014999
		CHANNELS 3 Xrotation Yrotation Zrotation
		JOINT LeftUpLegRoll
		{
			OFFSET 0.000000 0.000000 16.407600
			CHANNELS 3 Xrotation Yrotation Zrotation
			JOINT LeftLeg
			{
				OFFSET 0.000000 -0.000004 20.318100
				CHANNELS 3 Xrotation Yrotation Zrotation
				JOINT LeftLegRoll
				{
					OFFSET 0.000000 -0.000004 20.573105
					CHANNELS 3 Xrotation Yrotation Zrotation
					JOINT LeftFoot
					{
						OFFSET 0.000000 -0.000004 16.778305
						CHANNELS 3 Xrotation Yrotation Zrotation
						JOINT LeftToeBase
						{
							OFFSET 0.000000 0.000000 14.183395
							CHANNELS 3 Xrotation Yrotation Zrotation
							End Site
							{
								OFFSET -0.026943 0.791740 6.868896
							}
						}
					}
				}
			}
		}
	}
}
MOTION
Frames: 10
Frame Time: 0.041667
47.337391 -28.561115 80.324493 9.939571 2.983628 -1.216939 -0.864430 0.053221 -0.036114 2.273984 0.109005 -0.071934 3.919056 0.112528 -0.073232 -10.402181 0.549650 0.483842 9.691171 2.453643 -0.119984 -8.802498 -62.588001 -10.586920 131.227018 -51.120305 130.765338 0.000001 0.000005 -0.000008 6.898229 -15.564768 0.854904 -0.000014 -0.000013 -2.999999 -4.999674 -7.998771 -0.000068 -21.336652 66.283666 25.087469 126.098160 57.033446 -134.605530 0.000001 -0.000001 -0.000002 16.445772 6.731846 -0.476303 0.000015 -0.000006 2.999991 -4.999786 7.998689 -0.000050 -32.433181 174.939873 -3.158753 179.999991 0.000005 -0.776000 143.992641 -0.717554 -1.398452 -0.000000 -0.000002 0.682955 77.050251 6.841179 1.617330 26.386974 -7.352197 0.118992 -33.350690 174.412405 2.170489 0.000010 -0.000004 -1.005700 -47.300897 -3.161133 0.326989 -0.000000 0.000009 -1.845020 81.253269 -6.310412 -3.129197 28.194782 7.179851 -3.936444 
47.320198 -28.602119 80.372292 9.867876 2.972071 -1.196979 -0.868656 0.053702 -0.034298 2.265525 0.109814 -0.068295 3.910597 0.112974 -0.069602 -10.327318 0.571968 0.474192 9.670109 2.441177 -0.133656 -8.870188 -62.578166 -10.664809 131.329361 -51.237381 130.944903 0.000001 0.000006 -0.000008 6.947386 -15.513637 0.853029 -0.000012 -0.000013 -3.000000 -4.999674 -7.998771 -0.000067 -21.322522 66.286952 25.071248 126.098310 57.155494 -134.726164 0.000001 -0.000001 -0.000002 16.424057 6.669171 -0.465852 0.000016 -0.000006 2.999989 -4.999789 7.998688 -0.000050 -32.235255 174.956853 -3.147305 179.999991 0.000004 -0.776998 144.182875 -0.735500 -1.400761 0.000000 -0.000002 0.679303 77.006094 6.851997 1.586438 26.370508 -7.352193 0.116564 -33.162641 174.408867 2.153446 0.000010 -0.000004 -1.006270 -47.123353 -3.160178 0.333665 0.000001 0.000009 -1.838859 81.221871 -6.312286 -3.123879 28.183818 7.182181 -3.920509 
47.295795 -28.649017 80.409492 9.797305 2.960642 -1.176894 -0.873007 0.054120 -0.032395 2.256824 0.110474 -0.064482 3.901899 0.113239 -0.065798 -10.252761 0.594590 0.464224 9.649620 2.428706 -0.147730 -8.940612 -62.567408 -10.745820 131.432524 -51.353529 131.123882 0.000002 0.000005 -0.000008 6.996503 -15.463302 0.851212 -0.000013 -0.000012 -3.000001 -4.999673 -7.998771 -0.000068 -21.305358 66.289841 25.051580 126.098884 57.276614 -134.846854 0.000001 -0.000001 -0.000002 16.401465 6.606532 -0.455411 0.000015 -0.000006 2.999990 -4.999784 7.998689 -0.000050 -32.038758 174.974106 -3.136837 179.999991 0.000005 -0.779006 144.372850 -0.753512 -1.402974 0.000001 -0.000002 0.675667 76.961848 6.862820 1.555763 26.353938 -7.352210 0.114112 -32.976638 174.406367 2.136088 0.000012 -0.000005 -1.006840 -46.946622 -3.159303 0.340249 -0.000000 0.000010 -1.832720 81.190370 -6.314153 -3.118671 28.172965 7.184521 -3.904607 
47.276596 -28.684917 80.455894 9.727610 2.949303 -1.156767 -0.877435 0.054515 -0.030479 2.247963 0.111069 -0.060644 3.893036 0.113417 -0.061967 -10.178496 0.617397 0.454151 9.629624 2.416053 -0.161920 -9.012451 -62.556118 -10.828446 131.536439 -51.468638 131.302259 0.000002 0.000005 -0.000008 7.045454 -15.413865 0.849485 -0.000013 -0.000012 -3.000001 -4.999676 -7.998769 -0.000067 -21.286413 66.291815 25.029903 126.099991 57.396887 -134.967434 0.000001 -0.000001 -0.000002 16.377993 6.544148 -0.445006 0.000015 -0.000007 2.999989 -4.999785 7.998689 -0.000050 -31.843664 174.989884 -3.126346 179.999991 0.000005 -0.781000 144.562402 -0.771589 -1.406076 -0.000001 -0.000002 0.672041 76.917574 6.873580 1.525290 26.337373 -7.352215 0.111645 -32.792093 174.403211 2.119412 0.000010 -0.000004 -1.007400 -46.770513 -3.158535 0.346729 -0.000000 0.000009 -1.826610 81.158794 -6.316042 -3.113371 28.162116 7.186866 -3.888726 
47.262001 -28.712116 80.498299 9.658536 2.938031 -1.136687 -0.881892 0.054929 -0.028625 2.239044 0.111687 -0.056930 3.884128 0.113605 -0.058261 -10.104437 0.640267 0.444184 9.610030 2.403039 -0.175937 -9.084426 -62.544985 -10.911252 131.639916 -51.583259 131.478737 0.000001 0.000005 -0.000008 7.094086 -15.365532 0.847840 -0.000012 -0.000012 -3.000000 -4.999675 -7.998770 -0.000067 -21.267114 66.292600 25.007851 126.101644 57.516306 -135.087563 0.000002 -0.000001 -0.000003 16.353863 6.482223 -0.434680 0.000016 -0.000006 2.999991 -4.999785 7.998689 -0.000051 -31.649423 175.005019 -3.116508 179.999991 0.000005 -0.781997 144.751762 -0.788105 -1.406904 0.000000 -0.000002 0.668412 76.873164 6.884277 1.495229 26.320803 -7.352231 0.109193 -32.608652 174.400233 2.102792 0.000012 -0.000004 -1.007970 -46.595004 -3.157862 0.353122 -0.000001 0.000010 -1.820530 81.127259 -6.317937 -3.108168 28.151265 7.189180 -3.872859 
47.229893 -28.747711 80.535294 9.589817 2.926764 -1.116733 -0.886328 0.055403 -0.026907 2.230174 0.112411 -0.053488 3.875257 0.113897 -0.054828 -10.030782 0.663081 0.434542 9.590760 2.389499 -0.189495 -9.155291 -62.534487 -10.992815 131.743995 -51.696783 131.654642 0.000001 0.000004 -0.000007 7.142252 -15.318499 0.846303 -0.000012 -0.000012 -3.000000 -4.999677 -7.998768 -0.000067 -21.248806 66.291747 24.986963 126.105277 57.634352 -135.208553 0.000001 -0.000001 -0.000003 16.329176 6.420964 -0.424473 0.000012 -0.000006 2.999990 -4.999790 7.998688 -0.000051 -31.455842 175.019513 -3.107408 179.999991 0.000005 -0.784005 144.940931 -0.804667 -1.409633 0.000000 -0.000002 0.664772 76.828673 6.894800 1.465659 26.304138 -7.352242 0.106735 -32.425855 174.398225 2.085669 0.000012 -0.000004 -1.008550 -46.419912 -3.157308 0.359414 -0.000001 0.000009 -1.814490 81.095847 -6.319788 -3.103055 28.140415 7.191443 -3.856999 
47.227596 -28.769417 80.562386 9.521209 2.915478 -1.096995 -0.890692 0.055977 -0.025399 2.221445 0.113325 -0.050467 3.866530 0.114388 -0.051819 -9.957450 0.685721 0.425437 9.571737 2.375244 -0.202309 -9.223787 -62.525321 -11.071734 131.846557 -51.810424 131.827418 0.000002 0.000005 -0.000008 7.189810 -15.272779 0.844872 -0.000012 -0.000011 -3.000000 -4.999677 -7.998770 -0.000067 -21.232838 66.288892 24.968790 126.109485 57.751551 -135.328478 0.000001 -0.000001 -0.000004 16.303841 6.360605 -0.414403 0.000016 -0.000006 2.999991 -4.999786 7.998688 -0.000052 -31.262558 175.032463 -3.098627 179.999991 0.000005 -0.786000 145.130113 -0.819663 -1.410129 0.000000 -0.000002 0.661112 76.783901 6.905212 1.436804 26.287366 -7.352257 0.104294 -32.243301 174.395480 2.069033 0.000011 -0.000004 -1.009140 -46.245134 -3.156883 0.365602 -0.000002 0.000009 -1.808490 81.064674 -6.321599 -3.097932 28.129542 7.193635 -3.841142 
47.215298 -28.810513 80.432503 9.452453 2.904135 -1.077558 -0.894937 0.056694 -0.024177 2.212955 0.114516 -0.048015 3.858040 0.115174 -0.049382 -9.884414 0.708070 0.417086 9.552878 2.360110 -0.214092 -9.288636 -62.517869 -11.146515 131.947343 -51.924047 131.996916 0.000002 0.000005 -0.000008 7.236624 -15.228569 0.843557 -0.000011 -0.000012 -3.000000 -4.999677 -7.998767 -0.000066 -21.220628 66.283707 24.954938 126.115973 57.867535 -135.448867 0.000001 -0.000001 -0.000002 16.278159 6.301345 -0.404537 0.000015 -0.000005 2.999989 -4.999787 7.998689 -0.000050 -31.069188 175.045550 -3.091306 179.999991 0.000005 -0.786997 145.319310 -0.833049 -1.411375 0.000000 -0.000002 0.657422 76.739013 6.915353 1.408831 26.270490 -7.352271 0.101865 -32.060553 174.392816 2.052274 0.000010 -0.000004 -1.009760 -46.070661 -3.156578 0.371695 -0.000001 0.000010 -1.802550 81.033706 -6.323457 -3.092797 28.118774 7.195724 -3.825299 
47.188595 -28.802414 80.491585 9.383283 2.892698 -1.058509 -0.899010 0.057595 -0.023314 2.204803 0.116069 -0.046281 3.849889 0.116351 -0.047667 -9.811695 0.730014 0.409706 9.534099 2.343928 -0.224563 -9.348617 -62.512835 -11.215812 132.045629 -52.038450 132.162180 0.000002 0.000005 -0.000008 7.282558 -15.186167 0.842393 -0.000013 -0.000012 -3.000000 -4.999675 -7.998769 -0.000066 -21.213345 66.275614 24.946767 126.124374 57.982077 -135.569119 0.000001 -0.000001 -0.000002 16.252147 6.243407 -0.394892 0.000015 -0.000006 2.999989 -4.999784 7.998689 -0.000051 -30.875522 175.057052 -3.084530 179.999991 0.000005 -0.789005 145.508711 -0.845669 -1.411980 -0.000001 -0.000002 0.653694 76.693872 6.925217 1.381850 26.253418 -7.352286 0.099446 -31.877145 174.389346 2.035855 0.000007 -0.000004 -1.010400 -45.896310 -3.156426 0.377682 -0.000002 0.000010 -1.796670 81.003086 -6.325272 -3.087745 28.107893 7.197705 -3.809438 
47.154797 -28.846516 80.676895 9.313448 2.881109 -1.039931 -0.902868 0.058721 -0.022884 2.197095 0.118069 -0.045413 3.842179 0.118015 -0.046823 -9.739316 0.751437 0.403513 9.515330 2.326511 -0.233432 -9.402472 -62.510800 -11.278189 132.141867 -52.152722 132.324069 0.000001 0.000005 -0.000008 7.327456 -15.145593 0.841384 -0.000012 -0.000012 -3.000001 -4.999675 -7.998768 -0.000068 -21.212529 66.264385 24.946038 126.135098 58.095397 -135.689235 0.000001 -0.000001 -0.000002 16.225796 6.186991 -0.385490 0.000014 -0.000006 2.999989 -4.999784 7.998689 -0.000051 -30.681097 175.067789 -3.078920 179.999991 0.000005 -0.790002 145.698331 -0.856673 -1.411372 0.000000 -0.000002 0.649918 76.648458 6.934760 1.356055 26.236348 -7.352302 0.097079 -31.692689 174.386751 2.018665 0.000010 -0.000004 -1.011080 -45.721966 -3.156418 0.383563 -0.000002 0.000010 -1.790860 80.972931 -6.327004 -3.082855 28.097011 7.199543 -3.793567 
